<?xml version="1.0" standalone="no"?><!DOCTYPE svg PUBLIC "-//W3C//DTD SVG 1.1//EN" "http://www.w3.org/Graphics/SVG/1.1/DTD/svg11.dtd"><svg t="1496286181040" class="icon" style="" viewBox="0 0 1024 1024" version="1.1" xmlns="http://www.w3.org/2000/svg" p-id="2373" xmlns:xlink="http://www.w3.org/1999/xlink" width="64" height="64"><defs><style type="text/css"></style></defs><path d="M736.374548 119.712092l0 73.929297c115.30762 73.821946 191.735647 203.044345 191.735647 350.120808 0 229.437442-185.989794 415.427236-415.427236 415.427236-229.430285 0-415.427236-185.989794-415.427236-415.427236 0-147.07544 76.430072-276.296818 191.735647-350.118763L288.991371 119.713115C136.95323 200.083493 33.344863 359.823326 33.344863 543.762198c0 264.729454 214.609664 479.339118 479.339118 479.339118 264.735588 0 479.339118-214.609664 479.339118-479.339118C992.022077 359.822303 888.414732 200.081448 736.374548 119.712092z" p-id="2374" fill="#cccccc"></path><path d="M512.682959 511.806256c17.646517 0 31.955941-14.309424 31.955941-31.955941L544.6389 32.467138c0-17.652652-14.309424-31.955941-31.955941-31.955941-17.652652 0-31.955941 14.30329-31.955941 31.955941l0 447.383177C480.727018 497.496832 495.030307 511.806256 512.682959 511.806256z" p-id="2375" fill="#cccccc"></path></svg>