<?xml version="1.0" standalone="no"?><!DOCTYPE svg PUBLIC "-//W3C//DTD SVG 1.1//EN" "http://www.w3.org/Graphics/SVG/1.1/DTD/svg11.dtd"><svg t="1495939537127" class="icon" style="" viewBox="0 0 1024 1024" version="1.1" xmlns="http://www.w3.org/2000/svg" p-id="2362" xmlns:xlink="http://www.w3.org/1999/xlink" width="64" height="64"><defs><style type="text/css"></style></defs><path d="M788.527011 227.599671 237.519602 227.599671c-38.039361 0-68.876694 30.837332-68.876694 68.87567l0 367.338273c0 38.040385 30.837332 68.877717 68.876694 68.877717l551.007409 0c38.039361 0 68.87567-30.837332 68.87567-68.877717L857.402681 296.476365C857.403704 258.437004 826.566372 227.599671 788.527011 227.599671zM834.444806 642.768299c0 38.040385-30.837332 68.877717-68.87567 68.877717L260.4785 711.646016c-38.039361 0-68.87567-30.837332-68.87567-68.877717l0-325.247642c0-38.038338 30.836309-68.87567 68.87567-68.87567l505.090637 0c38.038338 0 68.87567 30.837332 68.87567 68.87567L834.444806 642.768299z" p-id="2363" fill="#CCCCCC"></path><path d="M781.056875 580.696592 795.998169 563.265594 644.917242 433.767218 765.569136 313.116347 748.929154 296.476365 501.340219 544.063253 268.595364 311.318398 252.361635 327.551104 370.162598 445.353091 237.518578 577.996087 254.461459 594.938967 387.105478 462.295971 501.727029 576.918545 517.980201 560.703235 517.980201 560.703235 628.63644 450.049043Z" p-id="2364" fill="#CCCCCC"></path></svg>