<?xml version="1.0" standalone="no"?><!DOCTYPE svg PUBLIC "-//W3C//DTD SVG 1.1//EN" "http://www.w3.org/Graphics/SVG/1.1/DTD/svg11.dtd"><svg t="1496223122955" class="icon" style="" viewBox="0 0 1024 1024" version="1.1" xmlns="http://www.w3.org/2000/svg" p-id="3726" xmlns:xlink="http://www.w3.org/1999/xlink" width="64" height="64"><defs><style type="text/css"></style></defs><path d="M445.339788 66.937528c86.095867-8.971325 207.04759-5.886057 275.117918 56.555064 17.607006 16.150842 33.30043 38.293141 43.227524 60.059887 10.501168 23.024389 16.945951 51.690266 17.132192 77.064166 0.391926 53.273321 0.078795 106.549711 0.082888 159.825079 0 4.427846 0 8.855692 0 14.478759 30.993898 0 60.182684-0.12075 89.369424 0.026606 49.566906 0.25071 88.793302 31.638581 89.208764 74.649164 0.975211 100.831476 1.530866 201.695698-0.336668 302.509778-1.226944 66.209958-53.858652 122.116245-127.125329 140.878564-9.93528 2.543939-20.041452 4.585435-30.068829 6.859221-192.401008 0-384.80304 0-577.204048 0-2.403746-0.768503-4.737908-1.863441-7.220449-2.25946-75.43097-12.033058-123.788328-50.404993-145.988955-113.966635-3.13848-8.984628-4.597715-18.414395-6.833639-27.638477 0-104.283088 0-208.565153 0-312.848241 0.556679-0.571005 1.415232-1.067308 1.626034-1.722224 15.459087-48.140417 43.342134-66.494437 101.099582-66.494437 25.233708 0 50.468438 0 77.400834 0 0-6.051833 0-10.900258 0-15.747659 0.00307-52.853765-0.316202-105.708554 0.079818-158.560272C245.716284 152.535045 345.228719 77.369112 445.339788 66.937528zM513.416256 473.055013c-117.170606 0-234.341213-0.014326-351.511819 0.008186-34.81697 0.007163-56.704466 15.308661-56.726979 45.485961-0.068562 93.990674-0.231267 187.982372 0.046049 281.973046 0.205685 70.00233 63.136969 120.764458 143.487995 120.778784 175.755909 0.030699 351.511819 0.023536 527.267728 0.004093 81.909521-0.00921 143.843082-49.741891 144.07742-120.992655 0.309038-93.990674 0.13303-187.982372 0.051165-281.973046-0.026606-30.644951-21.162995-45.270043-56.492642-45.276183C746.882542 473.04171 630.148887 473.055013 513.416256 473.055013zM740.382501 434.490695c0.284479-3.77293 0.651846-6.377244 0.651846-8.981559-0.002047-56.670697 0.450255-113.346511-0.205685-170.012092-0.814552-70.418816-62.429865-133.298935-141.947919-147.478889-54.641481-9.742898-110.937648-8.996908-165.55457-1.200338-80.484056 11.488659-146.08617 70.977541-149.529595 141.848659-2.914376 59.987233 1.059122 120.153544 0.930185 180.240037-0.004093 1.763157 0.966001 3.527336 1.567705 5.584182C434.784384 434.490695 590.995145 434.490695 740.382501 434.490695z" p-id="3727" fill="#cccccc"></path><path d="M579.352991 625.991194c-0.030699 25.418926-11.873422 48.155766-35.294854 59.183937-7.2798 3.427052-10.06217 6.967692-9.67843 13.950733 0.583285 10.613732 0.399089 21.279652-0.005117 31.907711-0.451278 11.856026-8.382924 18.886139-20.797675 19.169595-12.095479 0.276293-21.471011-6.633071-22.5199-18.006096-0.940418-10.196223-0.99056-20.535709-0.236384-30.745235 0.633427-8.574283-2.403746-13.282514-11.542894-17.654079-26.799366-12.821003-38.702464-44.865837-30.6603-70.587662 7.716752-24.684192 34.111912-41.845037 64.349587-41.839921 30.442336 0.00614 55.783491 16.540721 63.975057 42.044582C578.452481 618.114806 578.818825 623.094214 579.352991 625.991194zM513.095961 653.953036c12.346189-0.11768 22.104437-13.906731 22.144346-24.796756 0.042979-11.593036-9.884115-19.926842-23.26589-19.532869-12.31242 0.36225-22.312168 9.445116-21.961174 19.945261C490.359121 639.894855 501.20719 654.066623 513.095961 653.953036z" p-id="3728" fill="#cccccc"></path></svg>